/* XPM */
static char *_5ce5ed1d97d4c7ffb495c34b7876665DrGMw5KCaSWVJ3jA[] = {
/* columns rows colors chars-per-pixel */
"64 64 26 1 ",
"  c black",
". c None",
"X c #030306",
"o c #100F1A",
"O c #9E8A51",
"+ c #B69D56",
"@ c black",
"# c #3D3D4E",
"$ c #222034",
"% c #09080F",
"& c #080809",
"* c #171629",
"= c #0F0E19",
"- c #100F19",
"; c #0F0E18",
": c #100F1B",
"> c #0B0A12",
", c #0E0D17",
"< c #11101C",
"1 c #35322F",
"2 c #595652",
"3 c #050506",
"4 c #0E0D18",
"5 c #0E0D16",
"6 c #0D0C15",
"7 c white",
/* pixels */
"                                                                ",
"                                                                ",
"                                                                ",
"                                                                ",
"                                                                ",
"                                                                ",
"                                                                ",
"                                                                ",
"                                                                ",
"                                                                ",
"                                                                ",
"                                                                ",
"                                                                ",
"                                                                ",
"                                                                ",
"                            XXXXo                               ",
"                           XXXXXXoo                             ",
"                          XXoOOOOOo                             ",
"                          XooOOOOOOo                            ",
"                         XXooO+++++@                            ",
"                         XXooO+#$+$@                            ",
"                         Xooo++++++@                            ",
"                         Xoooo+++++@                            ",
"                         XXoOoo+++@@                            ",
"                        XXXoOOo+++@                             ",
"                        XXXXXO++++@                             ",
"                        XXXXXOO+++@                             ",
"                       XXXXXXXO++%                              ",
"                      XXoooXXXO+%                               ",
"                     XXoooooo%%&oo*                             ",
"                    XXo=oooooooooo****     *O+                  ",
"                   Xooo-oooooooooo*ooo******OO                  ",
"                  Xooo*Xoooooooooo*oooooooooO                   ",
"                 XXoo* XXX;ooooo:**oo>ooo>>>                    ",
"                 Xoo*  XXX,oooooo* >>>>>>>                      ",
"                XXo*   XXX,oooo<**                              ",
"               XXoo*   XXX,ooo:**                               ",
"              +ooo*    XXX;ooo<*                                ",
"             +OOOo*    XXo=oo:**                                ",
"            12 OO      XXo;=o:**                                ",
"           12          XXX3;ooo*                                ",
"          12           XXX3,oo<*                                ",
"         12           XXXX3,oo:**                               ",
"        12            XXXX3,ooo<*                               ",
"                      XXXX3o4=o:**                              ",
"                      XXXX@@@5=o<*                              ",
"                      XXXXX3@@4o:.*                             ",
"                       XXXXX@@6=o<**                            ",
"                       XXXXX3@@5=o<*                            ",
"                       X3XX3@@@@5=<*                            ",
"                        33X33@@@@5o*                            ",
"                       @X33X3@@@@@oo*                           ",
"                      @@@X3333@@@@o**                           ",
"                     @@@@@3oo3@@@@@o*                           ",
"                    @@@@@ooo 3@@@@@o*                           ",
"                   @@@@oo      @@@oo                            ",
"                  @@@@o         @@@o                            ",
"                  @@@o          @@@o                            ",
"                 @@@@o           @@oo                           ",
"                 @@@o            @@@oo                          ",
"                 @@@@o            @@@oo                         ",
"                  @@@@o           @@@@oo                        ",
"                                                                ",
"                                                                "
};
