/* XPM */
static char *_7927ca84f7943e0cfde2a350435e9fbc50BNJnMAaNbI3En[] = {
/* columns rows colors chars-per-pixel */
"64 64 27 1 ",
"  c None",
". c #030306",
"X c #100F1A",
"o c #9E8A51",
"O c #B69D56",
"+ c black",
"@ c #3D3D4E",
"# c #222034",
"$ c #09080F",
"% c #080809",
"& c #0F0E19",
"* c #100F19",
"= c #171629",
"- c #0F0E18",
"; c #0E0D17",
": c #11101C",
"> c #0B0A12",
", c #100F1B",
"< c #0E0E18",
"1 c #0E0D16",
"2 c #0D0C15",
"3 c #595652",
"4 c #050506",
"5 c #35322F",
"6 c #0E0D18",
"7 c #020203",
"8 c white",
/* pixels */
"                                                                ",
"                                                                ",
"                                                                ",
"                                                                ",
"                                                                ",
"                                                                ",
"                                                                ",
"                                                                ",
"                                                                ",
"                                                                ",
"                                                                ",
"                                                                ",
"                                                                ",
"                                                                ",
"                            ....X                               ",
"                           ......XX                             ",
"                          ..XoooooX                             ",
"                          .XXooooooX                            ",
"                         ..XXoOOOOO+X                           ",
"                         ..XXoO@#O#+X                           ",
"                         .XXXOOOOOO+X                           ",
"                         .XXXOOOOOO+XX                          ",
"                         ..XXXOOOO++X                           ",
"                         ..XXXXOOO+XX                           ",
"                        .....XOOOO+ XX                          ",
"                        .....XoOOO+                             ",
"                       .......oOO$                              ",
"                      ..XXX...oO$                               ",
"                     ..XXXXXX$$%XX                              ",
"                   ...X&XXXXXXXXXXX                             ",
"                  ..XXX*XXXXXXXXXX==                            ",
"                  .XXX=.XXXXXXXXXX=X=                           ",
"                 ..XX= ...-XXXXXXX=XX===                        ",
"                 .XXX  ...;XXXXX:==>XXXXX=OO                    ",
"                ..XX   ...;XXXX,==>>>XXXX=OO                    ",
"                .XX=   ...;XXXX:=   >>>>>Xo                     ",
"                .XX=   ...<XXXX:=                               ",
"                .X==   ..1XXXX,==                               ",
"                OOoo   ..2X&XX,==                               ",
"                 Oo3   ...4-XXX:=                               ",
"                 O 53  ...4;XXX:=                               ",
"                    53....4;XXX,==                              ",
"                     53...41&XXX:=                              ",
"                      53..++6XXX:=                              ",
"                      ....4+2&XX,==                             ",
"                      ....4++1&XX:=                             ",
"                      .....4++1&X,==                            ",
"                       .....+++1&XX==                           ",
"                       .....++++1-XX=                           ",
"                       .4..4++++716:=                           ",
"                        44.44+++++6X=                           ",
"                        .44.4+++++2*X=                          ",
"                       +..4444+++++6X=                          ",
"                       +.+44+++++++2*X                          ",
"                       ....++X++++++6X                          ",
"                      ....XXX   ++++XX                          ",
"                     ....XX      ++++X                          ",
"                     ...XX        +++X                          ",
"                    ...XX         ++++X                         ",
"                    ...X           ++++X                        ",
"                     ..XX           +++XX                       ",
"                     ..XXX          ++++XX                      ",
"                                                                ",
"                                                                "
};
