/* XPM */
static char *e5ae3467443142cae3a5f1d21b53574cdCD5ZTPFqVyz7GMn[] = {
/* columns rows colors chars-per-pixel */
"64 64 31 1 ",
"  c black",
". c None",
"X c #030306",
"o c #100F1A",
"O c #9E8A51",
"+ c #B69D56",
"@ c black",
"# c #3D3D4E",
"$ c #222034",
"% c #09080F",
"& c #0B0A12",
"* c #171629",
"= c #080809",
"- c #35322F",
"; c #0C0B14",
": c #595652",
"> c #0B0A13",
", c #0D0C15",
"< c #0E0D17",
"1 c #141324",
"2 c #0D0C16",
"3 c #0E0D18",
"4 c #0F0E18",
"5 c #100F1B",
"6 c #0F0E19",
"7 c #11101C",
"8 c #0E0E18",
"9 c #050506",
"0 c #0E0D16",
"q c #10101C",
"w c white",
/* pixels */
"                                                                ",
"                                                                ",
"                                                                ",
"                                                                ",
"                                                                ",
"                                                                ",
"                                                                ",
"                                                                ",
"                                                                ",
"                                                                ",
"                                                                ",
"                                                                ",
"                                                                ",
"                                                                ",
"                            XXXXo                               ",
"                           XXXXXXoo                             ",
"                          XXoOOOOOo                             ",
"                          XooOOOOOOo                            ",
"                         XXooO+++++@o                           ",
"                         XXooO+#$+$@o                           ",
"                         Xooo++++++@o                           ",
"                         Xoooo+++++@oo                          ",
"                         XXoOoo+++@@o                           ",
"                         XXoOOo+++@oo                           ",
"                        XXXXXO++++@ oo                          ",
"                        XXXXXOO+++@                             ",
"                        XXXXXXO++%                              ",
"                      XX&ooXXXO+%                               ",
"                      X&&*ooo%%=oo           -                  ",
"                     @X&&;**ooooooo         -:                  ",
"                    @@X&&>,<1**ooo*        -:                   ",
"                    @@XX&&&&2<<*o**       -:                    ",
"                   @@@XXX&&&&&&21*       -:                     ",
"                  @@@@XXXXXX&&&&;,2&&*OO+:                      ",
"                  @@@@XXXX,<XXX&&&&&&*+O                        ",
"                  @@@@ XXX<ooooXX&&&*++O                        ",
"                  @@@  XXX3ooooo*                               ",
"                  @@@  XX,4ooo5**                               ",
"                  OO+  XXX<6oo7**                               ",
"                  OO   XXXX8oo5*                                ",
"                  O    XXX@<ooo.*                               ",
"                      XXXX@<ooo7*                               ",
"                      XXXX9<ooo7*                               ",
"                      XXXX9<ooo7*                               ",
"                      XXXX906oo5**                              ",
"                      XXXX99<ooo7*                              ",
"                      XXXXX99<oo5**                             ",
"                      XXXXXX9X<oo7**                            ",
"                      XXXXXX999<oo7*                            ",
"                     XXXXXXX99994o7*                            ",
"                     XXXXXXXo@99<o5*                            ",
"                     XXXXXXXo@990ooo*                           ",
"                     XXXXXXoo@@9@0o**                           ",
"                     XXXXXXo@@@@@@o7*                           ",
"                     9XXXX@o@@@@@@oq*                           ",
"                     99999oo @@@@99**                           ",
"                    9999@oo   X@@@99*                           ",
"                    9999oo      @@99o                           ",
"                    999o         @99oo                          ",
"                   999o           999ooo                        ",
"                   999oo           9999o                        ",
"                   99999o           99                          ",
"                                                                ",
"                                                                "
};
