/* XPM */
static char *_51da55d193e4bc4aa93fc8d7bd4e8a2MCe0nMeg8OnFEl2l[] = {
/* columns rows colors chars-per-pixel */
"64 64 31 1 ",
"  c None",
". c #030306",
"X c #100F1A",
"o c #9E8A51",
"O c #B69D56",
"+ c black",
"@ c #3D3D4E",
"# c #222034",
"$ c #09080F",
"% c #0B0A12",
"& c #0B0A13",
"* c #171629",
"= c #080809",
"- c #0C0B14",
"; c #35322F",
": c #595652",
"> c #0D0C15",
", c #0E0D17",
"< c #141324",
"1 c #0D0C16",
"2 c #0E0D16",
"3 c #0F0E18",
"4 c #0F0E19",
"5 c #100F1B",
"6 c #050506",
"7 c #11101C",
"8 c #0D0D15",
"9 c #0C0C15",
"0 c #0E0D18",
"q c #100F19",
"w c white",
/* pixels */
"                                                                ",
"                                                                ",
"                                                                ",
"                                                                ",
"                                                                ",
"                                                                ",
"                                                                ",
"                                                                ",
"                                                                ",
"                                                                ",
"                                                                ",
"                                                                ",
"                                                                ",
"                                                                ",
"                                                                ",
"                            ....X                               ",
"                           ......XX                             ",
"                          ..XoooooX                             ",
"                          .XXooooooX                            ",
"                         ..XXoOOOOO+                            ",
"                         ..XXoO@#O#+                            ",
"                         .XXXOOOOOO+                            ",
"                         .XXXOOOOOO+                            ",
"                         ..XXXOOOO++                            ",
"                         ..XXXXOOO+                             ",
"                        .....XOOOO+                             ",
"                        .....XoOOO+                             ",
"                       .......oOO$                              ",
"                      ..%XX...oO$                               ",
"                     +.&%*XXX$$=XX                              ",
"                    +++&%-**XXXXXXX       ;:                    ",
"                   +++.%%&>,<XXXXX*      ;:                     ",
"                  ++++..%%%%1XXXX**     ;:                      ",
"                  ++++...%%%%*XXX*   oO;:                       ",
"                 +++++ ...%%%%1<*1%%*O;:                        ",
"                 ++++  ....%%%%->1%%*Oo                         ",
"                 +++   .....%%%%%%%*OO                          ",
"                 oo+   ...2X....%*                              ",
"                oo     ..2XXXX3**                               ",
"                o      ..>34XX5**                               ",
"                       ...63XXX7*                               ",
"                       ...6,XXX7*                               ",
"                      ....6,XXX7*                               ",
"                      ....6,XXX7*                               ",
"                      ....6,XXX7*                               ",
"                      ....6834X5**                              ",
"                      .....66,4X7**                             ",
"                      ......6.,4X7**                            ",
"                      ......6663XX7*                            ",
"                     .......66624X7*                            ",
"                     .......X+663X5*                            ",
"                     .......X+66,X5X*                           ",
"                    6......XX+++90q**                           ",
"                    66....XX++++++,5*                           ",
"                   666..XXX  ++++++3*                           ",
"                  66666XX      ++666X                           ",
"                  6666XX         +66X                           ",
"                 6666XX          666X                           ",
"                6666X            666X                           ",
"                 666XX            66XX                          ",
"                  666X            66+XX                         ",
"                   66X             66+X                         ",
"                                                                ",
"                                                                "
};
