/* XPM */
static char *b64259dc1ef24c4ea4654e977ad7acf8SFJcHEJ8YcHr0HFo[] = {
/* columns rows colors chars-per-pixel */
"100 100 11 1 ",
"  c #302A30",
". c #312A30",
"X c #302B30",
"o c #302A31",
"O c #312A31",
"+ c #312B31",
"@ c #28A4F4",
"# c #29A4F4",
"$ c #28A4F5",
"% c #29A4F5",
"& c #29A5F5",
/* pixels */
"                                  X                  O     %%%%%%%+O.....      o     o  X . X X     ",
"         XX     +      +  +       X  +                      %%%%%%%+....    .  .    ..   .X         ",
"       X                   +    X   X   ...+                %%%%%%%$....    ....   .     X   X      ",
"     X   X    X                         ...          ++   + %%%%%%% $$$.  . ....        o  .   .    ",
"        X     X     +              XX       +               %%%%%%%%$$% @ ......o     .  o      .   ",
"                                        ++  +                %%%%%%%$$$%$$$.$...                .  .",
"    X         X                      X  ++  +                  %$$$+ $@$$ $$$$.$.&. .         ..    ",
"         X  X X    +  +                 + +    +                ++%%%%@@$ $$$$$$@@&%% .    . ...    ",
"    O              +          +                                    %&&@@%%%%% %%@@$%...%.      . X  ",
"                                                    +   X         o o@ @ %% %%%%@@%%.$%%%.    +.    ",
" +          X           +    +                   +              .....    %%%%%%%%%%%%.%$%%%% %%%o   ",
"      O   +                   +       +        +     + +      X ......     XX%  %%%%%%%$%%%%%%%%@%  ",
" +                + +               +            +      X    X  +++.     +       $&%%$$$%%%%%%%%%&&@",
"         +  X X +               X                     +        X  ..     +        &&o%$$%%%%%%%%&&@@",
"  ++  O              +   +        +  +        +         +       +              +    ooo %%%%%%%%$$@@",
"%%%+&  %&& +&& & % % %&   &  %%   ++                     +            +  +          oo     %%%%%$$$$",
"%$%%o$$$%%% % % %%%%%%%%% %% %%%   %          +     +                           X             $$$%%$",
"%$%%$$$ %%%  %%%%+%%%%%%%%%%%%%%%%%%%%%              +                +       +       +         %%$%",
"%%%% %%%$%$$ % %% %%%%%%%%%%%%%%%%%%%%%%     +         +                  +     ++              ++$.",
"%%%%%%%%$$$ %%%%%%%%% %%%%%%%%%%%%%%%%%%%% +       +    +      +         +   +    X             ++O.",
"%%%%%%%%@@$$.$.$%%%%$%%%& &%%%&& %%%%%%%%%%+                          X +                           ",
"% % %% %@@  $$.$ % % % % %%% %&&%%%%%%%%%%% %              +          X    +      +                 ",
"     +      ....                 %%%%%%%%%%%%%%%       +              X                             ",
"  +           ..               X   %%%$%%%%%%%%%&&+         +    ++ X                    X        ..",
"X+       +  +++.++                    %% %%%%%%%%%%  +          X         oo  oo                    ",
"        X+  + ++  ++                    %% %%%%%% %     +                 oo   O                    ",
"  +      +      ..+O          +       +   %+% %%%%%%%       ++            oo     +                  ",
"                ..OO                        %% %%%%%%%                    +                         ",
"+     +         ..              OO O          %%%%%%%%%  ++                         +       +++X+   ",
"  XX +       +  ..              OO O+        +  %%%%%%%%        X  X .         +            +++     ",
"            +   .                     +   ++    +% %%%%%%  +  +    X    o         +    +  ....      ",
"   X            .          +          +   +O +    %%%%%%%%                o           +   ....      ",
"   X                      oo   +        ++         %$$$%%$%....                             XX      ",
" X   +                   ooo                       %$$$%%%%$..         +                  X    X    ",
"                    .     oo +                        $@%%%+..     + +  ++                          ",
"   X                      oo++ +                     $$@%%%%$..+        +++              X         o",
"    +            ..  o  o  .               O           @%%%%$..     +   ..                          ",
" + & %% +%%%%%%%$$        .   +           OO      ..  .%%%%%.$          ..        +                 ",
"%% &%%%%%%%%% %%@@%   .           +      O       +..  o$%%$%  @o +      .                           ",
"%%%%% %%%%%%%%%%@@@ o                             ..o   %%$$$$$@        ..              X           ",
"%%%%%%%%%%%%%%&%@%%%           +     + + +       .o ..+++$$$.$%%     +               .  .  .        ",
"%%%% %%%%%%%%%%%%%%&                         O   X  ... ..+$$$%# %% ++      +        .   .          ",
"+%%%%%%% %&& %%%%&&              +              .  X..  ..%$$.%%%%%           +     ...+   o        ",
"  %%%   %% & %%%          +     +                 ....  .. $%%%%%%%%%     +         ...             ",
"            ++ X X                    ++      +O  Xo        %$$% %% %%%    +       ++    ..         ",
"   +    +  +                      +          +     o        ..$.%%%%%% % %                          ",
" +                     X      ++         +                  ...$ %%%%%%%%%+    +     +++ X   X  +   ",
"                    X  X                  +   +             ....%%%% %%%%%%      +  + ++ X  .       ",
"                   +               .                               %%&@@$$$$%%                   ooo",
"           +                 +     .+                   X  o        &&@@$$%$%%                   ooo",
"          +                       +.++ +      X     X   X +o      .    & %%%%%%%%%         +        ",
"  +          +       +            +++++                   ++    o .      %%%%%%%%%%%%+         +    ",
"  +         +         + +                   X                   .          %% %%$$ %%%      +       ",
"         +        +     +             X               X                    %%%%%$$%%% %             ",
"                   X+                                 X             . o    +  %%%%%%%%%%%% % % +    ",
"                  +                        +      X     +                       %%%%%%%%%%%%%%%     ",
"                          +             X           +     o           o   +  +     %%%%%%%%%%%%% X%%",
"+ +    +                                             +   +o+        o              % %%%%%%%%%%%%%%%",
"     ++    +           +    +                                   o o                 % %  $  % %%%%%%",
"+                    X+        +        X                          .           +     +  $$$$% %% % %",
"+++O                                      +X+ X     +             o .+             ++  +  $$.$$$ %%%",
"$$O$ % %%%%%  %&+          +  +              X   +                  .+  +             +     ...+%%%%",
"$..$%%%%%%%%%%%%%%%%              ++                            o ....         +            ..+++ %%",
"$$$$%%%&&%%%%%%%%%%%% &&     +          XX           +        + ......+                     ..+++ X ",
".$%%%.$%%%%%%%%%%%o$$%%..$+........... o         o     o ++    +                           +++..++Oo",
"%$%%%%%%%$% %%%%%%$$.%%%%%$.%....... .           X  X           oo                        + ++..+ OO",
"%.$$%%%%$$&&%%%%%%$%%%$$%%%.$$$$$$..   .        X     .         oo          X                 .. +  ",
".$%..%%%% %&% %%%%%%$$$$%%%%$$$$.$..           o     o        + oo                            ..    ",
"  ..     +        $$$$$$%%%%$.$%%%%.%%..  .       X                                       X   .  +  ",
" ...            +   +$$.%$.%.$$.%$%%%$$%   .              +             oo                .  .      ",
"  ..+ +         +   ......$$$$..%.%%%%%$%&.               +++           oo    +   X   X    .   o +  ",
"  ..+           ++  .......$...$%%%%%%%%.%&  . o           ++           oo+                o       +",
"     OO O       ++ +   X..      %$$$$%%% %%%%%%% X     +      +  X              X XX                ",
"          O         +            %$$%$%%&%%%%%%%%%            + X X                      o     o   +",
"       +   O                        % %% &%%%%@%@@&&           +              o        X   .  o     ",
"           O           X              %%$%%%%%@@@@ &%%%%         X             OX      X    .       ",
"          O o     +             +++    $%%$$&&&@$$%%%%%%%          +++                            + ",
"      +               X         + +       $ &%@@$ %%%%%%%%X +       ++ .                   X        ",
"       +                      X  ++           % $$%%%%%%%%%  +   ++ +...                      .     ",
"       +            X      X       +          oo$$ %%%%%% %%    X   +...                 %X         ",
" ...          ..    +++...           .Xo  .X  X  %%% %%%%%%%%   X X             X      %%%%%        ",
" ...+          O    ++++..      o    .         .     %%$%%%%o%% +     +     X         %%%%%%%       ",
"  ..++                  ...               .   .      +$$%%%%$$ %                     %%%%%%%%%      ",
"  ..O+         O        .            X  .o     .+      %%%$$$$%%%+         XX         %&%%%%%%      ",
" ..             +                        X .  o          %% %%%%%   +                 &&%%%&%%      ",
" o            O +                           .  X     O    %%%%%%%%              X X    &%%%%%% %    ",
"            O        + +        .  X  X    .X .  +  ++   + %%%%$%%        X             %%%%%%%%    ",
"               O                    .  .    o       +++     %$%$%%%  +               +   %%%%%%%%%+ ",
"        +  +++             ++OOo..    .    .                 %$$%%%%               O     %%%%%%%%%%%",
"      X    +                OO  X      .   .       +         %%%% %% %                    &&%%%%%%%%",
"                                  o                            % %%%%%                    O  %%%%%%%",
"                                     o   o    .         +       %%%%%%%                   O +% %%%%%",
"          + +++       O     oo     X   .    ...               O  %%%%%%%                      +%%%%%",
"  X                                       . ....               o  %%%%%%%   OO  O       O       %%%%",
"                + +             oX X   ..   ..+  +   +            %%% %%$+    O         O   ++    %%",
"                     O     O         o      ..+                   % %%%%%     O           O++ +    %",
"                      +     ++++.                  O        +O      %%%%%%         +               +",
"      X                 +   +++ .                  O        ++  X+  %%%%%%%% X            +       ++",
"   X                   +   + +                           +  ++     + %%%%%%%         ++           ++",
"         +         +                                     OO          %%%%%%%                 +     +"
};
