/* XPM */
static char *ec108e4ab932499bb07161cbe9aaeb6cBuQypJqRlgrvcXYa[] = {
/* columns rows colors chars-per-pixel */
"100 100 11 1 ",
"  c #302A30",
". c #312A30",
"X c #302B30",
"o c #302A31",
"O c #312A31",
"+ c #312B31",
"@ c #CA2CFA",
"# c #CA2DFA",
"$ c #CB2DFA",
"% c #CA2DFB",
"& c #CB2DFB",
/* pixels */
"         X                       +                         &&&&&@#XX           XXo   o        X     ",
"         X                        X                         &@&&##&X                      X         ",
"    X      X                +       X        Xo             @@&@###@ X        XX             X      ",
"  X  X   X    X                        +    . oo            @@@@##$X&@&     oooX    o               ",
"        ooo+ XX                    XX       ...+            $$@#######@X@XXXXXXX                    ",
"        ooo+                                ...+            X@###@#####$@@&X&XXX                    ",
"        o ++ X                 X     X      ..++         X  ..X@&@@XX@##@X&#&@X@ @                  ",
"          +++                             ....++             XXXXX#####@#X@@@@&#&@@@@               ",
"   X              XXXX        X        +            X     XXXXo    &&&@@##&@& @@@@@#XXX@XX          ",
"                  XXXX         X                 X  X       XX       &X@X@@X&&&&@@##X@&@@X  XX      ",
"                 X Xoo    X          +          ++           o X X      X@@@@@&&#####X####@@X@##    ",
"   X  X             oo     X                +  +X+X     X    X o  X     XX   @  ###########@####&&  ",
"                                    +        +  Xooo                            X@@###@#########&&&&",
"     X             X X    X   X                 Xooo                X           XX@@X#@@######$#&&&&",
".X  X...        ..          X XX     +        +                           X     X  XX  X#@&@######@@",
"@@@ @  &&&  &@ @.& & &&   & X@@X   +                                       X        X   XXX@#######@",
"@@##X#####$X@X#X@#$######X&#X@##XXX#XXXXXX X  X                       ......++     +          &&##@#",
"##$#@#@X###XX@##@X$#######@#####@@&#@@@XX+X                           ....  +                   ##@@",
"####X###@#@@X&X##X@##@#$##@@####@###@@##oXX                         ++ +                        X.@ ",
"####@###@@& @@@@#$###X##$##@#####@######%%                          +  +          X            +XXX.",
"@&&&####&&&& & &#@@@#@##& &&&&&&X#######&@@ XX                                ++              +     ",
"@ & ##X#&&. && &X@X@X&X# &&& &&&@@##$###@@& &X           X        +                                 ",
"XX    XX        XXX   XX        X@########@@$### ..                             X        +        X ",
"XX                   ...      ++XXX#######@@####@@          X                         +  +        XX",
"XXXX                           +      && @@@@###@@&X          XX+   +                            XXX",
"XXoo                   X                &&X@##$##X@X    X              +     +    X              XXX",
"  oo                    X    X            &+#X@#####@X       X                              +     Xo",
"                           X   X            ##X@###@@@XX                   ++            X      o  o",
"   XXX                       X                @&####@@#X +   +                      +          X    ",
"    oX                                        X ####@@## +   +    +                     X           ",
"                                                X@X@&&&&&  +  XX +    X +     +   +   +      X   o  ",
"                                               XXX##&&&&&&    X          X                  X       ",
" X X                          X      X             &@@@@$$#XX                  X            +. X    ",
"                                   X  X  +         &$&@@$$##                         X    + ..      ",
"                    X                               ..&&$$#X                 X              ..    o ",
"        X    X X                      +             .&&&$$##@                     X   X     ..      ",
"    XX  X   XXXX           X         +++   +         + &####@XX              X  + +                 ",
"   &X#&  &@&#@@@&&                  + ++  ++        +  &####X@                                      ",
"#@ &@#####@@#X##&&&   X                  +       +     &####XX@X  X                                 ",
"#@@&&X##########&&&                        +            @##@@@@@  o                  +              ",
"#$###@##########&&@#X.X                                 X@@@X###XXXXXXo       X      +  +...        ",
"####X&##@@####$#&&@@XX     X  X              +      X   XXX@@@@#X#@XXXX                  +..        ",
"X@@#@@##X@&@X@$#&@@.           X                    XX  XX@@@X####@XXoo   X  X    +       .         ",
"XX###XXX@@.@X@##..X.   X                           oXX  XX @#######@%Xoo            +               ",
"    X       oX  X    X                                    oo#&&@X@#X@@&X            +    ..         ",
"X X XX       X  X   XX                       +             XXX@X#####&X# &    X+                    ",
"   X            Xo  XXXX                                  XoXXX@X@######@@      +                   ",
"                o oXXXXX                  +   +           XXXXXX###@X##@@&&      +     +            ",
"              X                              X                     &&&&&&@@@##X          X  XX      ",
"            X                       +       +                    X  &&&&&@#$##XX  XX      X    X    ",
"     X                          +      +                          XX   &X#######&@XX                ",
"                                      +                                 X#######@@@@@  X            ",
"                      oX                                XX      X       X X&@X####X@#$XX    XX      ",
" X             X      o                             X                     X&@@@@####@X@X     X      ",
" +                  o o                             X                    X  X &@########@@ &X&XX    ",
"                oXX   oo                   +        Xo  X                  XX   #########@&&@@&X    ",
"             +        Xo    +       +                   ++         X  X         XX @@@##########..&&",
"                     XXX         +     +                ++oo        X            XX@X@##########@&&&",
"+        X+           XX                +   +           +ooo                        & #XX@..#X@#@&&&",
"           +        XXXX            +                   +ooo                          XX@@@&#X@#.@ &",
"    XX XXXXX  + ...       X               +   XX                            Xo  oooX     X@@.&@@.@##",
"&& &X# @&@@#  &&...X            X+X     X                                       XooX        .XX @@@#",
"@  @####@@##&&&&&&&&      ++ X                  X                               o XoXX            ##",
"@&&&######@@@@&&&&&&& &&  +  +                                                    XXX+  X        XXX",
"X@##$X@#&&&&@@#$##X@@##XX@XXX.. X                         o        Xo           X               Xoo ",
"#@#@##$#&&@X$@#####$X####@@X&X  XX           X           o      X                 X     +       XX o",
"#X@&####&&&&$@$$###########X##@@@@ X   X X   X  X       XX   o  o                  +    +..         ",
"X@#XX###& &&$X$$###############@X@ X      X             XX   X            +      +  +   +..         ",
"    X     X     XX@@@#@@#####X@####X##XX          X            o                                Xoo ",
"    X     X      X  X#@ #@X#X@@X#@###@@#                       o                +     +         ooo ",
"           +   +    X   XX@#@@XX#X######&@X                   oo         +                      ooXX",
"       X     +      X    XX@XXX@######## &@X                  oo         X                      XXX+",
"  X +                     X X   @@@#####X###@$@@            XXoX                  +                X",
"           +                 X   @##########$@@@&&          XXoX      X      +                     +",
"       +                          X #X@# #$#$@$$&&&&XXXX     +      X         +  +    ++       +X   ",
"                                  X XX@###$$$$&&@& &@@&#X                            +           X  ",
"           X+               X ++      X@#@@@&&&&@&######@XX                                         ",
"                           o  oX    X X   @X&&&&&X######@@XX               +                        ",
"   X         +          ooXoXoXX          XX  & @#######@@#XX                                 +     ",
"     X        +           oooXXX           X    @#X@#####X##               +             &          ",
"    oO..                  +++...     X    +     X@@@X#######@XXXX         X         .  &@@##XX      ",
"     O..                  ++....               + XX X##@####X@@XX     X    XX       ..@@$$###X      ",
"      ..                  X+  .                  X  X.@@####@@X@                    .&&&$$#$##    X ",
"      ++            X   X  +            +      +      X@#####$##&           X      +..&&$$####      ",
"     +++            X                           XX      X@@X$$$$&               +   X &&######  X   ",
"      ++               X                           X    XX@@@@$$&&                     &######X@    ",
"                             o  X          +  +  X  X     X@@@$&&&        X          X  ######@@XXXX",
"          +                  ooo    X  X                 XXX@@@&&&& X                   X######@@@XX",
"                                 X                           @&&&&##XXX.  X X           X@@#########",
"                                XX               X     X     @&&@.##X@                 oXX@@########",
"                            oO +                       X       &.@##@@                XX    X#######",
"                            oO++                      X         @@##@@@X              X     X@X####@",
"            .+++            oo                  XX              X@######..                X X  @&&@@",
"            .+++   X        o                   XXX             XX######&               X   XX X&@@@",
"          .... XX X              X              Xo              XX##@X##@             oXXX        &@",
"        ooo...                                                  XX@X####@           o  XXX        .@",
"              +  +          ++                              ooo XXo @@####XXX         Xoooo         ",
"       +       +        +   ++              ++     +      + oo  XX  @@######          XXoo          ",
"      X                ++  + +                          ++   o..    .@@@####         ++X            ",
"         +                           +      +           O++  ...    .@@@####          XX            "
};
