/* XPM */
static char *_39e906497e54e69c5a73bd0f7055c4fOm6j0FvhmbiJifCD[] = {
/* columns rows colors chars-per-pixel */
"100 100 11 1 ",
"  c #302A30",
". c #312A30",
"X c #302B30",
"o c #312B30",
"O c #302A31",
"+ c #312A31",
"@ c #302B31",
"# c #312B31",
"$ c #FEF200",
"% c #FEF300",
"& c #FFF201",
/* pixels */
"              X                  #X           #   #        &&&&&&&X                                 ",
"      X  XX     X     XX  X    #  X              # #        &&&&&&&X          XX   X                ",
"                           ###      X  #   #                &&&&&&&&                 X              ",
"     X  XX                                            #   # &&&&&&& &&&                X            ",
"              X     X              XX       # #             &&&&&&&&&&& &                           ",
"X           X             #                 #     #          &&&&&&&&&&&&&& &                       ",
"   X                                 X                         &&&&XX&&&& &&&& & &                  ",
"             XX       X                   #    #    #          @XX&&&&&&& &&&&&&&&&&&               ",
"   X               X@    X                          X              &&&&&&&&&& &&&&&&  X& @   X@.    ",
"           X#                  X                       X       X    @& &X&&X&&&&&&&&X&&&&@          ",
"                   X    @ X                                      X      X&&&&&&&&&&&& &&$$&$@&$$    ",
"        X              X   X          #   X    #       X      X           XXX&# &&&&&&&&$$$$$$$$&&  ",
"     X                              #            #      X  X                    X&&&&&&&$$$$$$$$&&&&",
"     X        #    X      X                                                     XX&&X&&&$$$$$$$$&&&&",
"                          @    @X    #        #                                #    XX  $&&$$$$$&&&&",
"&&& &  &&&  && & & & &&   &  &&@   #       X                   X                    XX@ @  &$$$$&&&&",
"&&&&@&&&$&& & & $$$$$$$$&@&&@&&&  X&       X                                 X  X     X       &&&&&&",
"&&&&&&&@$$&@ &&&&@$$$$$$&&&&&&&&&&&&&&&                 X                 #   #      X          &&&&",
"&&&&@&&&$$&& & &$ &$&&$$&&&&&&&&&&&&&&&&  X               ++                      X               & ",
"&&&&&&&&$$$ &&&&$$$$& $$&&&&&&&&&&&&&&&&&&       #          #X +             #  X X                 ",
"&&&&&&&&&&$&@&.&$$$$&&&&& &&&&&& &&&&&&&&&&       X        X#           #                           ",
"& & &&@&&&@ &&.& &@$ &@& &&& &&&&&&&&&&&&&& &                  #           #   #                    ",
"      @       ..  @      XX     X&&&&&&&&&&&&&&&    X  X+                                           ",
"             @..              ##   &&&&&&&&&&&&&&&    X     #               X                       ",
"         X  ####.              #   X  &% &&&&&&&&&&X      X   XX          #                  #      ",
"        XX  # ##             #         @&& &&&&&&@&X   X  X  +                # X                   ",
"         X                                & & &&&&&&&        +                              #...    ",
"        X                      +            && &&&&&&&   X                                  ....    ",
"      X                            @X         &&&&&&&&&   @@ X  #..  #                              ",
"                                                &&&&&&&& @@@# X ##.  # #             X              ",
"        X   X                   @                & &&&&&& +#    ## #     X            X             ",
"  XX                                              &&&&&&&&   X  ###   X  X             #            ",
"                     @      @@   X                 &&&&&&&&                   ##  ###..    . #      ",
"                            @@#  @       #   X     &&&&&&&&&           XX     # # ##..    #X..   +  ",
"                            @@                      @@&&&&&@                       #       #..    # ",
"               X                      X     #       @&&&&&&&&             X        #     #  ..      ",
"            XXXX        @ @                            &&&&&&             X                 #  #   +",
"   &X&&  &&&&&&&&&      @     #     X     ##           &&&&& &                                      ",
"&& &&&&&&&&&& &&&&&                      #  X       X  &&&&&  &                X          #  #      ",
"&&&&&X&&&&&&&&&&&&&                                     &&&&&&&&                                    ",
"&&&&&&&&&&&&&&&&&&&&           +     # #           .XX   &&& &&&X X           X      #  #  ##      #",
"&&&& &&&&&&&&&&&&&&& X                       #     .       &&&&& &&                      #         +",
" &&&&&&& &&& &&&&&&       X     X                 XXXX  X &&& &&&&&  @@                             ",
"  &&&XXX&& & &&&       X      +                   XXXX @   &&&&&&&&&&@@@                      #     ",
"    X    X   @   X                    ##                    &&&& && &&&                  ##     +   ",
"    XX       X  X   X  X       +    X        #                & &&&&&& & &    X                #    ",
"   X     X            XX      +      X   #               X X   & &&&&&&&&&    X                 +#  ",
"             X@X    X       X    X X      #   #        X        &&&& &&&&&&                    X@@  ",
"           X                   +                                   &&&&&&&&&&&         X X      @@  ",
"           X  X     ++       +      #                     X    X X  &&&&&&&&&&         X       X@@@ ",
"          X         X  X      +   ..XX #                          XX   & &&&&&&&&&@   XX            ",
"                                  ....#                      #  X  X     &&&&&&&&&$&&@XX           @",
"                       X     X               #            # #             X&& &&&& &&&XX    X       ",
"               X       X       #             #          #               X X&&&&&&&&&& &X            ",
"                   X                     # #   #                         X    &&&&&&&&&&&& & &      ",
"         X     X    X                      #                                    &&&&&&&&&&&&&&&     ",
"     X+   +                 #                     #        #                XX     &&&&&&&&&&&&&  &&",
"                      X      #         X      #                            X       & &&&&&&&&&&&&&&&",
"  @ +@XX X   X                          #   #   #             #    @                & &  &  & &&&&&&",
"  @@@@XX              X      # #    X     X       #   #       #    X         X          &&&&& && & &",
"       XX     X         #  #      ##      #   ##                                          && &&& &&&",
"&& &X& &&&&&  &&                                                     @    @                     &&&&",
"&  &&&&&&&&&&&&&&&&&      ##      #                    #                                          &&",
"&&&&&&&&&&&&&&&&&&&&& &&     #                            #           @                             ",
" &&&& &&&&&&&&&&&& &&&&  &  X                          X ..      .@.        #              #        ",
"&&&&&&&&&&& &&&&&&&& &&&&&& &                X   X        @     .@     @     #          # #     #  #",
"& &&&&&&&&&&&&&&&&&&&&&&&&& &&&&&&              X                @  .              #             +X ",
" &&  &&&& &&& &&&&&&&&&&&&&&&&&& &                          @                    #  #             + ",
"          X     @@&&&&&&$$$$&X&&&&&X&&XX          X                    .                            ",
"          XX    @@   && $&@&X&&X&&&&&&&&           X                                  #   #  #      ",
"      @    #  # @       @ &&&&X &X&&&&&&&&                       .       #                          ",
"         X              @  &XXX&&&&&&&&& &&                      @.  @.  X                          ",
"        #                  @@   &&&&&&&& &&&&&&&    X   +@@@                   #+ +#               X",
"    X     #                  @   &&&&&&&&&&&&&&&&&  XXX @@ @     @@          #         X            ",
"           #                      X & && &&&&&&&&&&&XX                        #  +    +#   #        ",
"           #          @  @@     XX    &&&&&&&&&&&& &&&&&          ..            +                   ",
"   X                                  X&&&&&&&&&&&&&&&&&&        @ +                              X ",
"   X                                      & &&&&&X&&&&&&&&             #   #                     X  ",
"                 X                  X   X X   & &&&&&&&&&&&                     #             #    X",
"     X                           X              &&X&&&&&& &&          +  #      #        &          ",
"    ....          XX      #.....                 &&& &&&&&&&&@@@X                      &&&&&XXXX    ",
"    ...#                    ..                 #     &&&&&&& &&@X   XX X    X         &&&&&&&X X    ",
"    ..##                        X...    X             &&&&&&&&@&                     &&&&&&&&&      ",
"      #                         ...X    X              &&&&&&&&&&      X    X       XX&&&&&&&&      ",
"     #            ####             X        #   X        && &&&&&           XX      X &&$$$$&$@     ",
"                 #####      @@    #X               X      &&&&&&&&                 +   &$$$$$$ &    ",
"               #    ...         #             #  X         &&&&&&&        X    X   X #  $$$$$$&&    ",
"          #         ...             #  #                    &&&&&&&  X  X            +  @$$$$$$$&&  ",
"        #   ##      +        .   #         X          XX +   &&&&&&&XXXX  X X   X        &&&&&&&&&&&",
"        # # ##      + +         #                X    XX     &&&& &&X& X                  &&&&&&&&&&",
"+ +    #                                               X       & &&&&&                       &&&&&&&",
"    #                                       X                   &&&&&&&                      & &&&&&",
"          ### #              .         #       X           #     &&&$&&&     X                 &&&&&",
"                   + +                #  X          X    XX X     &&$&&&&   X                   &&&&",
"                # #                     X               X         &&&@&&&   @ @                   &&",
"                              @+                        X+        & &&&&&                          &",
"                 #   ##      +       +       X                +     &&&&&&                          ",
"      #                        +    + +    X +     + X              &&&&&&&&              @   @     ",
"      #                #             +            X          X       &&&&&&&         @@             ",
"       # #       #              ++          +            #+          &&&&&&&                        "
};
