/* XPM */
static char *_676be31a7d349c39e82f33826931694vlwdm5i5rIaOQxRt[] = {
/* columns rows colors chars-per-pixel */
"100 100 17 1 ",
"  c #302A30",
". c #312A30",
"X c #302B30",
"o c #312B30",
"O c #302A31",
"+ c #312A31",
"@ c #302B31",
"# c #312B31",
"$ c #0EE80C",
"% c #0FE80C",
"& c #0FE90C",
"* c #0FE80D",
"= c #10E622",
"- c #11E622",
"; c #10E722",
": c #10E623",
"> c #11E623",
/* pixels */
"                              X# #X                        >>>>=== o                          oo    ",
"         XX                       X                         >>;;===                  o    o         ",
"                            #       X      + o+             ==;;==::               o         o      ",
"     X   X    X                       X           ##      # ==;;==; ===   o              o          ",
"              X      o              X       +  +          oo======-==== =             oo            ",
"                                            +  +         ooo >=========;===o;        o              ",
"X    X                              #X        ++          #o   ====  =::= ==== = =          o       ",
"         X  X X  o                   X    +   +#                  ====::= ===========               ",
"                                                                   ===:::;:::@>>====  o=            ",
"                             o                          o           o= : ;; :>>>==== ====          o",
"        X                      o    #                               o    :::;;>>===-= ====== ===    ",
"      oo  #          o     o          #        #                     o    @@@;  ===-==============  ",
"    ##oo                         ##              X                          #   O=::;;==========:===",
"    ##oo             o                                              o     o      O:: ;;;========::==",
"++  ##       X        o  o                    #                           o             ============",
"$$$ *  ***  **#* ; ; :=   -  ==o  #       #                                o               =========",
"$*%%o%%%%%% $ = ========= >:@:== OO=   O      o       X                         X             --==--",
"**%%%%%o%%%o ==== ========>:::;;=======O                                  ## #                @ ==-=",
"%*%%o%%%%%%% = ;= ==========::;;======:=                   X     #     #            X           O = ",
"%%%%%%%%%%%o==;;===== ======::;;========-=                  #  X#    #            X             O   ",
"**$$%%%%**** > >:::>====>X>=>>>> =======:;;            X    #                               o       ",
"% $ %% %**  >> >@:@= = = >==X>>>========:;; =                             #    #                    ",
"oo                      X      X ===============    X  X    #   #                                   ",
" o                                 =============>>    X     #   #            #                     o",
"                             X        =-o-:::;==;;:           XX   #              oo                ",
"  o                            X        -- :====;o:                               oo                ",
"                o             X    o      - = ====;;:        #                  ###o        +       ",
"                oo                          ;= ==;;:::           ##             ###o     +          ",
"      o                                       ======;;;@ #       #                             +    ",
"     o                                          ===;;;::    # X                                     ",
"                                                 = =::>>>  #   X        #                    +      ",
"                oo                                ==>>>>>>                                  +       ",
"                        @  @                       =::;====                   ++            ++      ",
"                                                   >::=====;                         +    +         ",
"                                     o          oo##O =====        o                              o ",
"                                     #   o       oo.O-======-                         +             ",
"    oo   +       ++     @       oo+        +          o======      o            +                  o",
"  +$o%%  $*$%%%%$$      @     O  +        ++          o===== =                                      ",
"%* $%%%%%%*%%o****$                      +       o     ====:OO=                 o                   ",
"%**$%o%%%%%%%%%$**$              o +.                   =====:==          o     o    +              ",
"%%%%%*%%%%%%%%%$%**%oo     @@@ O     + +            oo  O=== ===     o        o     o  o            ",
"%%%% $%%*$%%%%%%%%$$oo    #@OO                   o       OO===== ==              +                  ",
"o*%%%%%% $%%o%%%**%o                    oo+o       o    o === =====               +                 ",
"o %%%  o%% %o%%%oooo                     ooo           o   ==========                     o         ",
"                                       +                    ==== ==o=:=O          ooo        o      ",
"        oo                    #                               =O=====:O= -    o   oo    o   o       ",
"   o    oo##                  #      o                         = =::====--    o + +o    oo          ",
"        oo##                                           o       o;;;:o===---      + +     o         o",
"                            #                                   #  >>>>;;===;;  o                   ",
"              o     #        #      # #     #     o      ++         >>>>;;==;;       o              ",
"                 X                     #                         X     > ===:;::;;                  ",
"                                 #    #                      +           ===::::;;:::               ",
"                             #                           o+                ;; ::;= =:: o            ",
"                                   #  X      #                             >=;::;===:@:             ",
"                   X               #                 +                        >:====>>===; = =oo    ",
"                  X       #    ##          #                   o              @@====>==========o    ",
"     o                    #                                                        =====>====>==  >>",
"                                       #                                           = =====>=====>>>>",
"                                 #          #               ##                      - =  = X=o==>=>>",
"    o                          #   #                        #                           ===>=o== = >",
"        @@                #                                 #ooo                   o   o  >> ==> ===",
"== = = =::>=  >> @         ##   #            o              #o o    +                           ====",
"=  =;=;:::;=;>>>::>>              #  #                            +            o          X       ==",
"====;;;:::;;;>>>:>>>> >>  #  #       #                                                          XX  ",
" ==== ==>;;:::;;;= ====  =ooo                                                        X     #        ",
"========>>;@;:;;==== =====-o=                             o                                        o",
"=o======>>>>:::;=========== =====;                                                           XX     ",
" == o===> >>:@::================ :                   X                                              ",
"         #        =========== ====> ==                          ##     #                      #     ",
"      o    X        o==o== = == ==::==;>        #   XX                                X   #  #      ",
"   oo                     ====  = ====>==;        # #                                               ",
"        # #              o = o =>=>=====X;=                o          #                             ",
"                           o    >;;;;=== =======#                                 #                 ",
"                               o >;;=;==========>>            o                 #                   ",
"           #              o         = ==X===>>==::>>                                  ##   #        ",
"                                XX    ======>>==::@:====          #                  #              ",
"                            oo       X ;====>;;=::=======          #+O                              ",
"                                          ; >=;=: =;====:-        # OO +   o                        ",
"                                              > :;;;====::;         O+  Xooo                  #     ",
"                                                :; ;====: ;;     #  O   ##oo             >          ",
"       ooo     +                                 ::: =--;;;:=                       X  ===;=        ",
"    o  + o+                #                         --=;;;: =;                    #  >>==;;=       ",
"   o         +            #                o     o    -===::=> >                     >>>===;==    o ",
"      ++                                +             o-==:::>==>                  #  >>======      ",
"     . .                 #                      o        == ====>@@                   >>======    o ",
"             o    #X                          ##          ===;==>>                     >====== =    ",
"+           +o +            #                    o  o      =;;=>>>                      =======>    ",
"   +           .                                            ;>=>===                      =========  ",
"        +oo    .     #   #+++   oooo       o    o    o       >>>=;==    o              # =======;;;=",
"        + o      #  # #   +#++  + ooo              o         >>>; == =    o               ======;;==",
"+ +    +                                                       > ;====                       ==>;;::",
"    +                                         oo        #       ;;=====                      = =::::",
"          +              #                                 #     =======@O                 XX  >>>>:",
" o               #+# #            +                    o          ==;=>=>              #     X  >>>:",
"  o    +         #+                  o           o                === ===     oooo  X             >>",
"     ooo    +#   ###            +                                 = =====     oooo#           X    >",
"                                     #                  #           ======                         #",
" o                      ++          # #      #     #             X  ===;==== X            X         ",
"                          o  #       #                               ==;====                   #    ",
"                                         #               ##          ==;====             X          "
};
