/* XPM */
static char * snape7_xpm[] = {
"64 64 30 1",
" 	c None",
".	c #000000",
"+	c #100F1B",
"@	c #151426",
"#	c #030306",
"$	c #100F1A",
"%	c #9E8A51",
"&	c #B69D56",
"*	c #000000",
"=	c #3D3D4E",
"-	c #222034",
";	c #09080F",
">	c #0B0A12",
",	c #080809",
"'	c #0C0B14",
")	c #171629",
"!	c #0B0A13",
"~	c #0D0C15",
"{	c #11101C",
"]	c #141324",
"^	c #100F1B",
"/	c #0E0D17",
"(	c #0D0C16",
"_	c #050506",
":	c #0E0D18",
"<	c #35322F",
"[	c #595652",
"}	c #0F0E19",
"|	c #0F0E18",
"1	c #FFFFFF",
"                                                                ",
"                                                                ",
"                                                                ",
"                                                                ",
"                                                                ",
"                                                                ",
"                                                                ",
"                                                                ",
"                                                                ",
"                                                                ",
"                                                                ",
"                                                                ",
"                                                                ",
"                            ####$                               ",
"                           ######$$                             ",
"                          ##$%%%%%$                             ",
"                          #$$%%%%%%$                            ",
"                         ##$$%&&&&&*$                           ",
"                         ##$$%&=-&-*$                           ",
"                         #$$$&&&&&&*$$                          ",
"                         #$$$$&&&&&*$$$                         ",
"                         ##$%$$&&&**$$                          ",
"                        ###$%%$&&&*$$                           ",
"                        #####%&&&&* $                           ",
"                        #####%%&&&*                             ",
"                       #######%&&;                              ",
"                      ##>>$###%&;                               ",
"                     *#>>>$$$;;,$$                              ",
"                     *#>>'$$$$$$$+)                             ",
"                    **#>!~$$$$$$${)                             ",
"                    **#>>~)$$$$$${)                             ",
"                    **#>>>])$$$$^@)                             ",
"                     *##>>/)$$$${)                              ",
"                     *##>>>)$$$^))                              ",
"                     **##>>()$${))                              ",
"                     **###>(]$${))                              ",
"                     **##>>>>)$$)                               ",
"                      *###>>>>)$)                               ",
"                      *###>>>>)$)                               ",
"                       ###_>)))$)                               ",
"                      ####_:$&%$$)                              ",
"                      ####_/$$&%$)                              ",
"                      ####_/$&&%$)                              ",
"                      ####_/$$$<[)                              ",
"                      #####$}$$$<[                              ",
"                      ####__/}$$$<[                             ",
"                      #####__/}$$)<[                            ",
"                       #####_#|$$$)<[                           ",
"                       #####__/$$$$)                            ",
"                       #_##_**/$$$$)                            ",
"                        __#__*:$$$$)                            ",
"                        #__#_$}$$$$$)                           ",
"                        *#__$}$$$$$))                           ",
"                       ****$$$$$**$$)                           ",
"                       ****$$$$****$)                           ",
"                       ***$$$$****$$                            ",
"                       **$$$ *****                              ",
"                      ***$   ***$                               ",
"                      **$$   ****$                              ",
"                     #**$     ****$                             ",
"                     ***$$$    ***$                             ",
"                     ****#$                                     ",
"                                                                ",
"                                                                "};
