/* XPM */
static char * snape6_xpm[] = {
"64 64 26 1",
" 	c None",
".	c #000000",
"+	c #11101C",
"@	c #100F1B",
"#	c #030306",
"$	c #100F1A",
"%	c #9E8A51",
"&	c #B69D56",
"*	c #000000",
"=	c #3D3D4E",
"-	c #222034",
";	c #09080F",
">	c #0B0A12",
",	c #171629",
"'	c #0F0E19",
")	c #0E0D17",
"!	c #100F1B",
"~	c #0F0E18",
"{	c #050506",
"]	c #11101C",
"^	c #35322F",
"/	c #0E0D16",
"(	c #595652",
"_	c #0D0C16",
":	c #0E0D18",
"<	c #FFFFFF",
"                                                                ",
"                                                                ",
"                                                                ",
"                                                                ",
"                                                                ",
"                                                                ",
"                                                                ",
"                                                                ",
"                                                                ",
"                                                                ",
"                                                                ",
"                                                                ",
"                                                                ",
"                                                                ",
"                            ####$                               ",
"                           ######$$                             ",
"                          ##$%%%%%$                             ",
"                          #$$%%%%%%$                            ",
"                         ##$$%&&&&&*$                           ",
"                         ##$$%&=-&-*$                           ",
"                         #$$$&&&&&&*$                           ",
"                         #$$$$&&&&&*$$                          ",
"                         ##$%$$&&&**$                           ",
"                         ##$%&$&&&*$$                           ",
"                        #####%&&&&* $$                          ",
"                        #####%%&&&*                             ",
"                       #######%&&;                              ",
"                      ##>$$###%&;                               ",
"                      ##$$$$$#;;;$                              ",
"                     ##$$$$$$$$$$$$                             ",
"                     #$$$,$$$$$$$$$                             ",
"                     #$$$,$$$$$$$$$,                            ",
"                     #$$$,$$$$$$$$,$,                           ",
"                     #$$,#'$$$$$$$,$$,                          ",
"                    ##$$,#)$$$$$$,,$$$,                         ",
"                    #$$,##)$$$$!,,$$$$$,                        ",
"                    #$$,##)$$$$$,  $$$$,&&                      ",
"                    #$$,##~$$$$$,    $,,% &                     ",
"                    #$$,#$'$$$$,,                               ",
"                    #$$,#$~'$$$,,                               ",
"                    #$$,##{~$$$],                               ",
"                     &,,##{)$$$$,,                              ",
"                     &%###{)$$$$],                              ",
"                    &%%###{)$$$$+,                              ",
"                    ^%####{/'$$!,                               ",
"                    ^(####{{)'$],                               ",
"                    ^(#####{{)'!,,                              ",
"                    ^( #####{#~$],,                             ",
"                    ^( #####{{)$$],                             ",
"                    ^( #{##{**_'$],                             ",
"                     (  {{#{{**:$!,                             ",
"                        #{{#{**:$!$,                            ",
"                         #{{{{/'$!,,                            ",
"                         *{{*{)$$@,                             ",
"                          {{{{~$$$                              ",
"                         ****$$$                                ",
"                        *****$$                                 ",
"                        *****$                                  ",
"                        *****$                                  ",
"                        *****$                                  ",
"                          ****$                                 ",
"                          ****$$                                ",
"                                                                ",
"                                                                "};
