/* XPM */
static char * snape3_xpm[] = {
"64 64 31 1",
" 	c None",
".	c #000000",
"+	c #11101C",
"@	c #100F1B",
"#	c #030306",
"$	c #100F1A",
"%	c #9E8A51",
"&	c #B69D56",
"*	c #000000",
"=	c #3D3D4E",
"-	c #222034",
";	c #09080F",
">	c #0B0A12",
",	c #171629",
"'	c #080809",
")	c #595652",
"!	c #35322F",
"~	c #231F20",
"{	c #050506",
"]	c #11101C",
"^	c #0E0D17",
"/	c #0E0D16",
"(	c #0F0E19",
"_	c #100F1B",
":	c #060608",
"<	c #050508",
"[	c #0E0E18",
"}	c #0D0C16",
"|	c #0E0D18",
"1	c #100F19",
"2	c #FFFFFF",
"                                                                ",
"                                                                ",
"                                                                ",
"                                                                ",
"                                                                ",
"                                                                ",
"                                                                ",
"                                                                ",
"                                                                ",
"                                                                ",
"                                                                ",
"                                                                ",
"                                                                ",
"                            ####$                               ",
"                           ######$$                             ",
"                          ##$%%%%%$                             ",
"                          #$$%%%%%%$                            ",
"                         ##$$%&&&&&*$                           ",
"                         ##$$%&=-&-*$                           ",
"                         #$$$&&&&&&*$$                          ",
"                         #$$$$&&&&&*$$$                         ",
"                         ##$%$$&&&**$$                          ",
"                         ##$%%$&&&*$$                           ",
"                        #####%&&&&* $                           ",
"                        #####%%&&&*                             ",
"                       #######%&&;                              ",
"                      ##>>>###%&;                               ",
"                      #>>>>,$;;'$$                              ",
"                     #>>>,,,$$$$$$$                             ",
"                     #>>,,$$$$$$$$,                             ",
"                    ##>>,$$$$$$$$,,                             ",
"                   ##>>,,$$$$$$$$,,                             ",
"                   ##>>,$$$$$$$$$,,,                            ",
"                    #>>,$$$$$$$$,,$$,                           ",
"                    #>>,,$$$$$$$,>$$$,                          ",
"                    ##>>,$$$$$$$,>>>$$,&                        ",
"                     #>>>,$$$$$,, >>>$,&&                       ",
"                     ##>>,#$$$$,,   >>$%                        ",
"                      ##,%%%))))))                              ",
"                       #,&&%!!!!!                               ",
"                      ##>&%~$$$,,                               ",
"                      ####{$$$$],                               ",
"                      ####{^$$$],                               ",
"                      #####^$$$],                               ",
"                      ####{/($$_,,                              ",
"                      ####{{^$$$],                              ",
"                      #####{:^$$_,,                             ",
"                       ###***<[$$$,,                            ",
"                       ####***}($$],                            ",
"                       #{##{***/($$,                            ",
"                        {{#{{***/|_,                            ",
"                        #{{#{****|$+,                           ",
"                       **#{{${***/1],                           ",
"                       ***{$${***/$@,                           ",
"                       ***{$  ***/$$                            ",
"                      ***{$    **/$$                            ",
"                      ***$$    **$$                             ",
"                      **$$     **$                              ",
"                     ***$      {$$                              ",
"                     ***$      {{$$                             ",
"                      ***$      **$                             ",
"                        **                                      ",
"                                                                ",
"                                                                "};
