/* XPM */
static char * snape2_xpm[] = {
"64 64 32 1",
" 	c None",
".	c #000000",
"+	c #0F0E19",
"@	c #030306",
"#	c #100F1A",
"$	c #9E8A51",
"%	c #B69D56",
"&	c #000000",
"*	c #3D3D4E",
"=	c #222034",
"-	c #09080F",
";	c #0B0A12",
">	c #0C0B14",
",	c #171629",
"'	c #080809",
")	c #0B0A13",
"!	c #141324",
"~	c #595652",
"{	c #050506",
"]	c #0D0C15",
"^	c #35322F",
"/	c #0E0D16",
"(	c #0E0D17",
"_	c #18161E",
":	c #11101C",
"<	c #0F0E19",
"[	c #100F1B",
"}	c #0F0E18",
"|	c #0D0D16",
"1	c #030204",
"2	c #0E0E18",
"3	c #FFFFFF",
"                                                                ",
"                                                                ",
"                                                                ",
"                                                                ",
"                                                                ",
"                                                                ",
"                                                                ",
"                                                                ",
"                                                                ",
"                                                                ",
"                                                                ",
"                                                                ",
"                                                                ",
"                                                                ",
"                            @@@@#                               ",
"                           @@@@@@##                             ",
"                          @@#$$$$$#                             ",
"                          @##$$$$$$#                            ",
"                         @@##$%%%%%&#                           ",
"                         @@##$%*=%=&#                           ",
"                         @###%%%%%%&#                           ",
"                         @####%%%%%&##                          ",
"                         @@#$##%%%&&#                           ",
"                         @@#$$#%%%&##                           ",
"                        @@@@@$%%%%& ##                          ",
"                        @@@@@$$%%%&                             ",
"                       @@@@@@@$%%-                              ",
"                      @@;;#@@@$%-                               ",
"                      @;;>,##--'##                              ",
"                      @;)),,#######                             ",
"                      @;;;;,######,                             ",
"                      @;;;;!######,                             ",
"                      @@@;;,#####,,                             ",
"                      @@@;;;,####,                              ",
"                      @@@;;;,####,                              ",
"                      @@@@;;>,##,,                              ",
"                      @@@@;;;;,,,                               ",
"                       @@@@;;;;,,                               ",
"                       @@@@@;;;;,     ~~                        ",
"                       @@@{]@;,,$$  ~~^^                        ",
"                       @@@{/#@%%%$~~^^                          ",
"                      @@@@{(###%$^^^                            ",
"                      @@@@{(##_,                                ",
"                      @@@@{(##:,                                ",
"                      @@@@{/<#[,,                               ",
"                      @@@@{{}##:,                               ",
"                      @@@@@{(##[,,                              ",
"                       @@@&&)}##:,,                             ",
"                       @@@@&&(###:,                             ",
"                       @{@{{&|}##:,                             ",
"                        {{@{{1]}#[,                             ",
"                        @{{@{{&2#[#                             ",
"                         @{{{{{(#+,                             ",
"                         &{{{{{##{                              ",
"                         &{{{{##&                               ",
"                         {{{{##{                                ",
"                       {{{{###                                  ",
"                      {{{{###                                   ",
"                     {{{###&#                                   ",
"                     {{##&&&#                                   ",
"                     {{#  &&##                                  ",
"                      {{# &&&##                                 ",
"                                                                ",
"                                                                "};
